<svg xmlns="http://www.w3.org/2000/svg" viewBox="0 0 900 560" role="img" aria-label="Records shelf">
  <rect width="900" height="560" fill="#eef2f3"/>
  <rect x="0" y="0" width="900" height="180" fill="#334247"/>
  <rect x="74" y="96" width="752" height="340" rx="10" fill="#6d503a"/>
  <rect x="104" y="126" width="692" height="70" fill="#8a6748"/>
  <rect x="104" y="218" width="692" height="70" fill="#8a6748"/>
  <rect x="104" y="310" width="692" height="70" fill="#8a6748"/>
  <g>
    <rect x="128" y="132" width="46" height="58" fill="#f7f1df"/>
    <rect x="184" y="132" width="38" height="58" fill="#dfe8e7"/>
    <rect x="232" y="132" width="54" height="58" fill="#f0c77b"/>
    <rect x="312" y="132" width="42" height="58" fill="#b94b5f"/>
    <rect x="368" y="132" width="60" height="58" fill="#f7f1df"/>
    <rect x="446" y="132" width="48" height="58" fill="#87aaa5"/>
    <rect x="516" y="132" width="42" height="58" fill="#f0c77b"/>
    <rect x="574" y="132" width="68" height="58" fill="#dfe8e7"/>
    <rect x="660" y="132" width="54" height="58" fill="#b94b5f"/>
  </g>
  <g>
    <rect x="138" y="224" width="76" height="58" fill="#dfe8e7"/>
    <rect x="236" y="224" width="40" height="58" fill="#f7f1df"/>
    <rect x="292" y="224" width="56" height="58" fill="#87aaa5"/>
    <rect x="370" y="224" width="42" height="58" fill="#f0c77b"/>
    <rect x="430" y="224" width="74" height="58" fill="#f7f1df"/>
    <rect x="526" y="224" width="50" height="58" fill="#b94b5f"/>
    <rect x="596" y="224" width="48" height="58" fill="#dfe8e7"/>
  </g>
  <rect x="300" y="344" width="224" height="126" rx="8" fill="#fbfbf8" transform="rotate(-5 412 407)"/>
  <path d="M336 382h146M334 410h132M332 438h104" stroke="#85939a" stroke-width="9" stroke-linecap="round"/>
  <circle cx="512" cy="352" r="20" fill="#0f766e"/>
  <path d="M504 352h16M512 344v16" stroke="#fff" stroke-width="6" stroke-linecap="round"/>
</svg>
